<?xml version="1.0" encoding="utf-8"?>
<!-- Generator: Adobe Illustrator 17.0.0, SVG Export Plug-In . SVG Version: 6.00 Build 0)  -->
<!DOCTYPE svg PUBLIC "-//W3C//DTD SVG 1.1//EN" "http://www.w3.org/Graphics/SVG/1.1/DTD/svg11.dtd">
<svg version="1.1" xmlns="http://www.w3.org/2000/svg" xmlns:xlink="http://www.w3.org/1999/xlink" x="0px" y="0px"
	 width="4055.867px" height="2702.941px" viewBox="0 0 4055.867 2702.941" enable-background="new 0 0 4055.867 2702.941"
	 xml:space="preserve">
<g id="_x31_.외부">
	<rect x="0" y="0" fill="#BDB6B2" width="4055.867" height="2702.941"/>
</g>
<g id="_x32_.내부">
	<polygon display="none" fill="#BBB4B1" points="8326.649,2122.508 8219.305,2122.508 4093.973,2122.508 4093.949,2442.506 
		4093.981,2512.987 4001.125,2513.01 4001.125,2606.182 3907.562,2606.182 3907.562,2480.326 3875.313,2480.326 3875.312,2322.122 
		3805.562,2322.122 3805.562,2289.779 3633.902,2289.779 3633.902,2196.735 2982.35,2196.735 2982.35,2287.999 2795.978,2287.999 
		2795.978,2317.938 2689.729,2317.938 2689.729,2201.817 2354.206,2201.817 2354.206,2150.212 1843.611,2150.212 1843.611,2201.271 
		1605.756,2201.271 1605.756,3048.246 1601.171,3586.936 1601.174,4038.295 1568.673,4069.978 1549.604,4113.06 1540.187,4159.438 
		1540.187,4301.16 1549.368,4349.422 1568.202,4391.325 1606.104,4429.463 1647.302,4447.59 1694.15,4456.771 1699.095,4456.771 
		1699.066,4875.36 1703.337,4879.826 1619.376,4963.396 1754.458,5098.479 1838.287,5019.313 1843.464,5019.313 1934.059,5186.963 
		2885.42,5186.963 2885.42,5186.854 2885.42,5124.104 2885.42,5023.988 2977.456,4931.014 2977.456,4833.326 3095.336,4833.326 
		3123.245,4912.575 3074.737,4917.892 3037.525,4931.846 3005.629,4958.426 2977.456,4998.295 2967.088,5032.185 2963.102,5077.371 
		2971.74,5119.234 2995.662,5155.533 3032.209,5186.854 3064.77,5201.632 3107.297,5210.935 3149.161,5205.618 3192.353,5186.963 
		3224.249,5163.053 3247.506,5128.537 3257.474,5095.313 3301.995,4903.938 3313.956,4882.009 3338.542,4862.738 3368.445,4856.758 
		3818.31,4856.758 3848.079,4884.667 4009.685,4884.729 4009.685,4903.273 4019.851,4903.273 4019.851,4921.6 4001.062,4921.6 
		4001.062,5214.996 5661.439,5214.996 5661.439,5200.844 6125.442,5200.844 6837.781,5200.844 7698.304,5200.844 7782.031,5088.668 
		7847.228,4762.937 7920.917,4414.771 7987.398,4075.923 8071.062,3657.021 8363.85,2177.935 	"/>
	<polygon display="none" fill="#BBB4B1" points="6862.062,5376.826 7600.062,5376.826 7643.062,5371.826 7690.062,5345.826 
		7719.062,5310.826 7994.062,3939.826 8059.062,3607.826 8120.177,3402.85 8362.85,2213.826 8359.62,2172.123 8340.062,2139.826 
		8320.062,2123.826 8285.062,2115.826 5617.062,2115.826 5582.062,2106.826 5540.062,2087.826 5520.062,2082.826 4832.062,2082.826 
		4749.062,2107.003 4149.062,2107.003 4083.062,2082.826 4000.062,2082.826 3967.062,2095.826 3951.062,2115.826 3945.062,2129.826 
		3878.062,2129.826 3878.062,2147.826 3841.062,2147.826 3841.062,2117.826 3820.062,2092.826 3807.062,2082.826 3795.062,2082.826 
		3795.062,2102.826 3570.062,2102.826 3548.062,2088.826 3344.062,2088.826 3317.062,2100.826 3302.062,2121.826 3298.062,2140.826 
		3141.062,2140.826 3129.062,2115.826 3111.062,2096.826 3084.062,2088.826 2892.062,2088.826 2820.831,2143.125 2776.309,2221.407 
		2617.789,2221.407 2410.831,2221.407 2359.458,2165.142 2359.458,2140.19 2353.587,2115.238 2330.103,2087.839 2293.409,2079.033 
		1592.298,2079.033 1547.286,2091.753 1511.081,2115.238 1480.747,2155.358 1445.52,2198.412 1408.826,2991.993 1429.864,3040.919 
		1448.456,3059.511 1501.786,3074.678 2541.953,3074.678 2541.953,3088.377 2547.335,3106.48 2565.927,3121.647 2584.029,3121.647 
		2600.664,3108.438 2607.514,3087.888 2607.514,3254.237 2519.936,3254.237 2519.936,3209.225 1808.061,3209.225 1808.061,3584.487 
		1546.796,3584.487 1546.796,3259.619 1542.883,3237.113 1523.802,3217.053 1500.317,3212.65 1486.618,3212.65 1486.618,3556.6 
		1508.635,3556.6 1508.635,3570.788 1500.317,3570.788 1500.317,3699.952 1510.103,3699.952 1510.103,3712.673 1487.597,3712.673 
		1487.597,4482.77 1499.339,4505.275 1519.888,4524.357 1519.888,4528.76 1348.157,4528.76 1323.694,4609.978 1318.312,4844.822 
		1323.694,4863.903 1757.668,5314.021 1780.664,5331.146 1817.848,5342.888 6764.271,5342.888 	"/>
	<polygon fill="#BBB4B1" points="2930.953,1047.318 1116.286,1047.318 1116.286,1672.655 1127.082,1672.655 1152.793,1727.371 
		1219.232,1754.992 1305.078,1754.992 1347.867,1672.655 1377.061,1672.655 1377.061,1614.411 1729.286,1614.411 1729.286,1513.127 
		2112.029,1513.127 2112.029,1614.411 2213.551,1614.411 2213.551,1586.284 2436.286,1586.284 2436.286,1672.655 2695.756,1672.655 
		2742.512,1763.274 2826.028,1763.274 2891.797,1727.257 2918.869,1672.655 2930.953,1672.655 	"/>
</g>
<g id="_x33_.매장">
	<polygon id="_x32_03" fill="#EBE9E8" stroke="#BDB6B2" stroke-miterlimit="10" points="1385.884,1204.957 1199.505,1204.957 
		1199.505,1242.321 1171.265,1242.321 1171.265,1224.508 1116.286,1224.508 1116.286,1400.895 1255.549,1400.895 1255.549,1363.967 
		1385.884,1363.967 	"/>
	
		<rect id="_x32_03-1" x="2492.866" y="1149.781" fill="#EBE9E8" stroke="#BDB6B2" stroke-miterlimit="10" width="165.526" height="81.242"/>
	
		<rect id="D-1" x="2865.628" y="1280.12" fill="#EBE9E8" stroke="#BDB6B2" stroke-miterlimit="10" width="65.324" height="120.777"/>
</g>
<g id="_x34_.스텝영역">
	<polygon fill="#E4E2E0" stroke="#BDB6B2" stroke-width="1.8" stroke-miterlimit="10" points="2836.956,1242.751 2836.956,1167.591 
		2750.934,1167.591 2750.934,1280.12 2930.953,1280.12 2930.953,1242.751 	"/>
	<polygon fill="#E4E2E0" stroke="#BDB6B2" stroke-width="1.8" stroke-miterlimit="10" points="2891.797,1727.212 2826.028,1763.229 
		2742.512,1763.229 2695.757,1672.61 2918.726,1672.61 	"/>
	<polygon fill="#E4E2E0" stroke="#BDB6B2" stroke-width="1.8" stroke-miterlimit="10" points="2511.333,1419.61 2511.333,1401.11 
		1729.255,1401.11 1729.255,1513.082 2112.029,1513.082 2112.029,1614.365 2213.619,1614.365 2213.619,1585.944 2436.286,1585.944 
		2436.286,1672.61 2725.3,1672.61 2725.3,1419.61 	"/>
	<polygon fill="#E4E2E0" stroke="#BDB6B2" stroke-width="1.8" stroke-miterlimit="10" points="1319.286,1401.11 1319.286,1586.086 
		1116.286,1586.086 1116.286,1672.61 1127.083,1672.61 1152.793,1727.326 1219.232,1754.947 1305.078,1754.947 1347.867,1672.61 
		1377.002,1672.61 1377.002,1401.11 	"/>
</g>
<g id="_x35_.화장실">
	<polygon id="_x32_FWC2" fill="#DEDAD8" stroke="#BDB6B2" stroke-miterlimit="10" points="2762.665,1111.113 2762.665,1047.273 
		2658.392,1047.273 2658.392,1167.591 2836.956,1167.591 2836.956,1242.751 2930.953,1242.751 2930.953,1111.113 	"/>
	<polygon id="_x32_FWC1" fill="#DEDAD8" stroke="#BDB6B2" stroke-miterlimit="10" points="1282.084,1047.273 1282.084,1111.61 
		1116.286,1111.61 1116.286,1224.508 1171.255,1224.508 1171.255,1242.321 1199.505,1242.321 1199.505,1168.059 1385.884,1168.059 
		1385.884,1047.273 	"/>
</g>
<g id="_x36_.엘리베이터">
	
		<rect id="_x32_FEV2_1_" x="2725.3" y="1428.704" fill="#DEDAD8" stroke="#BDB6B2" stroke-miterlimit="10" width="55.609" height="243.905"/>
	
		<rect id="_x32_FEV3_1_" x="2854.786" y="1550.656" fill="#DEDAD8" stroke="#BDB6B2" stroke-miterlimit="10" width="76.167" height="121.953"/>
	
		<rect id="_x32_FEV1_1_" x="1191.589" y="1400.895" fill="#DEDAD8" stroke="#BDB6B2" stroke-miterlimit="10" width="63.947" height="149.215"/>
</g>
<g id="_x37_.에스컬레이터">
	
		<rect id="_x32_FES1" x="1888.25" y="1149.781" fill="#BCB5B1" stroke="#F1EFEE" stroke-miterlimit="10" width="279.366" height="64.224"/>
	<rect x="1888.25" y="1181.893" fill="#BCB5B1" stroke="#F1EFEE" stroke-miterlimit="10" width="279.366" height="32.111"/>
	<rect x="1888.25" y="1149.781" fill="#BCB5B1" stroke="#F1EFEE" stroke-miterlimit="10" width="279.366" height="32.111"/>
</g>
<g id="_x38_.계단">
	
		<rect id="_x32_FST4_1_" x="2854.786" y="1400.897" fill="#DEDAD8" stroke="#BDB6B2" stroke-miterlimit="10" width="76.167" height="129.617"/>
	<g>
		<g>
			<rect x="2891.628" y="1423.848" fill="none" stroke="#BDB6B2" stroke-miterlimit="10" width="20.824" height="77.574"/>
			<line fill="none" stroke="#BDB6B2" stroke-miterlimit="10" x1="2912.453" y1="1501.422" x2="2891.628" y2="1501.422"/>
			<line fill="none" stroke="#BDB6B2" stroke-miterlimit="10" x1="2912.453" y1="1488.493" x2="2891.628" y2="1488.493"/>
			<line fill="none" stroke="#BDB6B2" stroke-miterlimit="10" x1="2912.453" y1="1475.563" x2="2891.628" y2="1475.563"/>
			<line fill="none" stroke="#BDB6B2" stroke-miterlimit="10" x1="2912.453" y1="1462.633" x2="2891.628" y2="1462.633"/>
			<line fill="none" stroke="#BDB6B2" stroke-miterlimit="10" x1="2912.453" y1="1449.707" x2="2891.628" y2="1449.707"/>
			<line fill="none" stroke="#BDB6B2" stroke-miterlimit="10" x1="2912.453" y1="1436.778" x2="2891.628" y2="1436.778"/>
		</g>
		<g>
			<rect x="2865.628" y="1423.848" fill="none" stroke="#BDB6B2" stroke-miterlimit="10" width="20.824" height="77.574"/>
			<line fill="none" stroke="#BDB6B2" stroke-miterlimit="10" x1="2886.453" y1="1501.422" x2="2865.628" y2="1501.422"/>
			<line fill="none" stroke="#BDB6B2" stroke-miterlimit="10" x1="2886.453" y1="1488.493" x2="2865.628" y2="1488.493"/>
			<line fill="none" stroke="#BDB6B2" stroke-miterlimit="10" x1="2886.453" y1="1475.563" x2="2865.628" y2="1475.563"/>
			<line fill="none" stroke="#BDB6B2" stroke-miterlimit="10" x1="2886.453" y1="1462.633" x2="2865.628" y2="1462.633"/>
			<line fill="none" stroke="#BDB6B2" stroke-miterlimit="10" x1="2886.453" y1="1449.707" x2="2865.628" y2="1449.707"/>
			<line fill="none" stroke="#BDB6B2" stroke-miterlimit="10" x1="2886.453" y1="1436.778" x2="2865.628" y2="1436.778"/>
		</g>
	</g>
	
		<rect id="_x32_FST3_1_" x="1116.286" y="1400.895" fill="#DEDAD8" stroke="#BDB6B2" stroke-miterlimit="10" width="75.303" height="149.215"/>
	<g>
		<g>
			<rect x="1159.62" y="1429.185" fill="none" stroke="#BDB6B2" stroke-miterlimit="10" width="20.824" height="77.574"/>
			<line fill="none" stroke="#BDB6B2" stroke-miterlimit="10" x1="1180.444" y1="1506.759" x2="1159.62" y2="1506.759"/>
			<line fill="none" stroke="#BDB6B2" stroke-miterlimit="10" x1="1180.444" y1="1493.829" x2="1159.62" y2="1493.829"/>
			<line fill="none" stroke="#BDB6B2" stroke-miterlimit="10" x1="1180.444" y1="1480.9" x2="1159.62" y2="1480.9"/>
			<line fill="none" stroke="#BDB6B2" stroke-miterlimit="10" x1="1180.444" y1="1467.97" x2="1159.62" y2="1467.97"/>
			<line fill="none" stroke="#BDB6B2" stroke-miterlimit="10" x1="1180.444" y1="1455.044" x2="1159.62" y2="1455.044"/>
			<line fill="none" stroke="#BDB6B2" stroke-miterlimit="10" x1="1180.444" y1="1442.115" x2="1159.62" y2="1442.115"/>
		</g>
		<g>
			<rect x="1133.62" y="1429.185" fill="none" stroke="#BDB6B2" stroke-miterlimit="10" width="20.824" height="77.574"/>
			<line fill="none" stroke="#BDB6B2" stroke-miterlimit="10" x1="1154.444" y1="1506.759" x2="1133.62" y2="1506.759"/>
			<line fill="none" stroke="#BDB6B2" stroke-miterlimit="10" x1="1154.444" y1="1493.829" x2="1133.62" y2="1493.829"/>
			<line fill="none" stroke="#BDB6B2" stroke-miterlimit="10" x1="1154.444" y1="1480.9" x2="1133.62" y2="1480.9"/>
			<line fill="none" stroke="#BDB6B2" stroke-miterlimit="10" x1="1154.444" y1="1467.97" x2="1133.62" y2="1467.97"/>
			<line fill="none" stroke="#BDB6B2" stroke-miterlimit="10" x1="1154.444" y1="1455.044" x2="1133.62" y2="1455.044"/>
			<line fill="none" stroke="#BDB6B2" stroke-miterlimit="10" x1="1154.444" y1="1442.115" x2="1133.62" y2="1442.115"/>
		</g>
	</g>
	
		<rect id="_x32_FST2_1_" x="2762.665" y="1047.273" fill="#DEDAD8" stroke="#BDB6B2" stroke-miterlimit="10" width="168.288" height="63.84"/>
	<g>
		<g>
			<rect x="2787.319" y="1058.572" fill="none" stroke="#BDB6B2" stroke-miterlimit="10" width="77.574" height="20.824"/>
			<line fill="none" stroke="#BDB6B2" stroke-miterlimit="10" x1="2864.893" y1="1058.572" x2="2864.893" y2="1079.396"/>
			<line fill="none" stroke="#BDB6B2" stroke-miterlimit="10" x1="2851.963" y1="1058.572" x2="2851.963" y2="1079.396"/>
			<line fill="none" stroke="#BDB6B2" stroke-miterlimit="10" x1="2839.034" y1="1058.572" x2="2839.034" y2="1079.396"/>
			<line fill="none" stroke="#BDB6B2" stroke-miterlimit="10" x1="2826.104" y1="1058.572" x2="2826.104" y2="1079.396"/>
			<line fill="none" stroke="#BDB6B2" stroke-miterlimit="10" x1="2813.178" y1="1058.572" x2="2813.178" y2="1079.396"/>
			<line fill="none" stroke="#BDB6B2" stroke-miterlimit="10" x1="2800.249" y1="1058.572" x2="2800.249" y2="1079.396"/>
		</g>
		<g>
			<rect x="2787.319" y="1084.572" fill="none" stroke="#BDB6B2" stroke-miterlimit="10" width="77.574" height="20.824"/>
			<line fill="none" stroke="#BDB6B2" stroke-miterlimit="10" x1="2864.893" y1="1084.572" x2="2864.893" y2="1105.396"/>
			<line fill="none" stroke="#BDB6B2" stroke-miterlimit="10" x1="2851.963" y1="1084.572" x2="2851.963" y2="1105.396"/>
			<line fill="none" stroke="#BDB6B2" stroke-miterlimit="10" x1="2839.034" y1="1084.572" x2="2839.034" y2="1105.396"/>
			<line fill="none" stroke="#BDB6B2" stroke-miterlimit="10" x1="2826.104" y1="1084.572" x2="2826.104" y2="1105.396"/>
			<line fill="none" stroke="#BDB6B2" stroke-miterlimit="10" x1="2813.178" y1="1084.572" x2="2813.178" y2="1105.396"/>
			<line fill="none" stroke="#BDB6B2" stroke-miterlimit="10" x1="2800.249" y1="1084.572" x2="2800.249" y2="1105.396"/>
		</g>
	</g>
	
		<rect id="_x32_FST1_1_" x="1116.286" y="1047.273" fill="#DEDAD8" stroke="#BDB6B2" stroke-miterlimit="10" width="165.799" height="64.337"/>
	<g>
		<g>
			<rect x="1190" y="1058.786" fill="none" stroke="#BDB6B2" stroke-miterlimit="10" width="77.574" height="20.824"/>
			<line fill="none" stroke="#BDB6B2" stroke-miterlimit="10" x1="1267.575" y1="1058.786" x2="1267.575" y2="1079.61"/>
			<line fill="none" stroke="#BDB6B2" stroke-miterlimit="10" x1="1254.645" y1="1058.786" x2="1254.645" y2="1079.61"/>
			<line fill="none" stroke="#BDB6B2" stroke-miterlimit="10" x1="1241.715" y1="1058.786" x2="1241.715" y2="1079.61"/>
			<line fill="none" stroke="#BDB6B2" stroke-miterlimit="10" x1="1228.786" y1="1058.786" x2="1228.786" y2="1079.61"/>
			<line fill="none" stroke="#BDB6B2" stroke-miterlimit="10" x1="1215.86" y1="1058.786" x2="1215.86" y2="1079.61"/>
			<line fill="none" stroke="#BDB6B2" stroke-miterlimit="10" x1="1202.93" y1="1058.786" x2="1202.93" y2="1079.61"/>
		</g>
		<g>
			<rect x="1190" y="1084.786" fill="none" stroke="#BDB6B2" stroke-miterlimit="10" width="77.574" height="20.824"/>
			<line fill="none" stroke="#BDB6B2" stroke-miterlimit="10" x1="1267.575" y1="1084.786" x2="1267.575" y2="1105.61"/>
			<line fill="none" stroke="#BDB6B2" stroke-miterlimit="10" x1="1254.645" y1="1084.786" x2="1254.645" y2="1105.61"/>
			<line fill="none" stroke="#BDB6B2" stroke-miterlimit="10" x1="1241.715" y1="1084.786" x2="1241.715" y2="1105.61"/>
			<line fill="none" stroke="#BDB6B2" stroke-miterlimit="10" x1="1228.786" y1="1084.786" x2="1228.786" y2="1105.61"/>
			<line fill="none" stroke="#BDB6B2" stroke-miterlimit="10" x1="1215.86" y1="1084.786" x2="1215.86" y2="1105.61"/>
			<line fill="none" stroke="#BDB6B2" stroke-miterlimit="10" x1="1202.93" y1="1084.786" x2="1202.93" y2="1105.61"/>
		</g>
	</g>
</g>
<g id="LINE">
	
		<polygon id="전체" display="none" fill="none" stroke="#7A6C64" stroke-width="8" stroke-linejoin="round" stroke-miterlimit="10" points="
		6862.062,5376.826 7600.062,5376.826 7643.062,5371.826 7690.062,5345.826 7719.062,5310.826 7994.062,3939.826 8059.062,3607.826 
		8120.177,3402.85 8362.85,2213.826 8359.62,2172.123 8340.062,2139.826 8320.062,2123.826 8285.062,2115.826 5617.062,2115.826 
		5582.062,2106.826 5540.062,2087.826 5520.062,2082.826 4832.062,2082.826 4749.062,2107.003 4149.062,2107.003 4083.062,2082.826 
		4000.062,2082.826 3967.062,2095.826 3951.062,2115.826 3945.062,2129.826 3878.062,2129.826 3878.062,2147.826 3841.062,2147.826 
		3841.062,2117.826 3820.062,2092.826 3807.062,2082.826 3795.062,2082.826 3795.062,2102.826 3570.062,2102.826 3548.062,2088.826 
		3344.062,2088.826 3317.062,2100.826 3302.062,2121.826 3298.062,2140.826 3141.062,2140.826 3129.062,2115.826 3111.062,2096.826 
		3084.062,2088.826 2892.062,2088.826 2820.831,2143.125 2776.309,2221.407 2617.789,2221.407 2410.831,2221.407 2359.458,2165.142 
		2359.458,2140.19 2353.587,2115.238 2330.103,2087.839 2293.409,2079.033 1592.298,2079.033 1547.286,2091.753 1511.081,2115.238 
		1480.747,2155.358 1445.52,2198.412 1408.826,2991.993 1429.864,3040.919 1448.456,3059.511 1501.786,3074.678 2541.953,3074.678 
		2541.953,3088.377 2547.335,3106.48 2565.927,3121.647 2584.029,3121.647 2600.664,3108.438 2607.514,3087.888 2607.514,3254.237 
		2519.936,3254.237 2519.936,3209.225 1808.061,3209.225 1808.061,3584.487 1546.796,3584.487 1546.796,3259.619 1542.883,3237.113 
		1523.802,3217.053 1500.317,3212.65 1486.618,3212.65 1486.618,3556.6 1508.635,3556.6 1508.635,3570.788 1500.317,3570.788 
		1500.317,3699.952 1510.103,3699.952 1510.103,3712.673 1487.597,3712.673 1487.597,4482.77 1499.339,4505.275 1519.888,4524.357 
		1519.888,4528.76 1348.157,4528.76 1323.694,4609.978 1318.312,4844.822 1323.694,4863.903 1757.668,5314.021 1780.664,5331.146 
		1817.848,5342.888 6764.271,5342.888 	"/>
	<polygon fill="none" stroke="#7A6C64" stroke-width="16" stroke-linejoin="round" stroke-miterlimit="10" points="
		2930.953,1047.273 1116.286,1047.273 1116.286,1672.61 1127.083,1672.61 1152.793,1727.326 1219.232,1754.947 1305.078,1754.947 
		1347.867,1672.61 1377.061,1672.61 1377.061,1614.365 1729.286,1614.365 1729.286,1513.082 2112.029,1513.082 2112.029,1614.365 
		2213.551,1614.365 2213.551,1586.239 2436.286,1586.239 2436.286,1672.61 2695.757,1672.61 2742.512,1763.229 2826.028,1763.229 
		2891.797,1727.212 2918.869,1672.61 2930.953,1672.61 	"/>
</g>
<g id="레이어_13" display="none">
	
		<rect x="744.19" y="349.091" display="inline" fill="#FFFFFF" stroke="#231815" stroke-miterlimit="10" width="2567.486" height="349.091"/>
	
		<rect x="744.19" y="0" display="inline" fill="#FFFFFF" stroke="#231815" stroke-miterlimit="10" width="2567.486" height="349.091"/>
	
		<rect x="744.19" y="2353.85" display="inline" fill="#FFFFFF" stroke="#231815" stroke-miterlimit="10" width="2567.486" height="349.091"/>
	
		<rect x="744.19" y="2004.759" display="inline" fill="#FFFFFF" stroke="#231815" stroke-miterlimit="10" width="2567.486" height="349.091"/>
	
		<rect x="372.095" y="698.182" display="inline" fill="#FFFFFF" stroke="#231815" stroke-miterlimit="10" width="372.095" height="1306.577"/>
	
		<rect x="0" y="698.182" display="inline" fill="#FFFFFF" stroke="#231815" stroke-miterlimit="10" width="372.095" height="1306.577"/>
	
		<rect x="3683.772" y="698.182" display="inline" fill="#FFFFFF" stroke="#231815" stroke-miterlimit="10" width="372.095" height="1306.577"/>
	
		<rect x="3311.677" y="698.182" display="inline" fill="#FFFFFF" stroke="#231815" stroke-miterlimit="10" width="372.095" height="1306.577"/>
</g>
<g id="text" display="none">
	<g display="inline">
		<text transform="matrix(1 0 0 1 1657.0944 1160.3971)" fill="#0D423D" font-family="'H2gtrE'" font-size="52.25">2F</text>
	</g>
	<text transform="matrix(1 0 0 1 1598.9828 1324.6461)" display="inline" font-family="'H2gtrE'" font-size="22">할리스1</text>
	<text transform="matrix(1 0 0 1 2259.9897 1275.6617)" display="inline" font-family="'H2gtrE'" font-size="22">할리스2</text>
	<text transform="matrix(1 0 0 1 2422.1094 1355.8317)" display="inline" font-family="'H2gtrE'" font-size="22">약국</text>
</g>
<g id="Zone-BOI" display="none">
	
		<text id="_x32_FST1_x5F_Zone" transform="matrix(1 0 0 1 1592.3345 1204.7911)" display="inline" fill="#FF0000" font-family="'AdobeMyungjoStd-Medium-KSCpc-EUC-H'" font-size="12">2FST1;(227 190);(186 175),(269 175),(269 207),(186 207)</text>
	
		<text id="_x32_FST2_x5F_Zone" transform="matrix(1 0 0 1 2415.8352 1204.3557)" display="inline" fill="#FF0000" font-family="'AdobeMyungjoStd-Medium-KSCpc-EUC-H'" font-size="12">2FST2;(1051 190);(1093 175),(1009 175),(1009 206),(1093 206)</text>
	
		<text id="_x32_FST3_x5F_Zone" transform="matrix(1 0 0 1 1585.9827 1390.3275)" display="inline" fill="#FF0000" font-family="'AdobeMyungjoStd-Medium-KSCpc-EUC-H'" font-size="12">2FST3;(204 388);(186 426),(224 426),(224 351),(186 351)</text>
	
		<text id="_x32_FST4_x5F_Zone" transform="matrix(1 0 0 1 2450.3804 1409.1272)" display="inline" fill="#FF0000" font-family="'AdobeMyungjoStd-Medium-KSCpc-EUC-H'" font-size="12">2FST4;(1074 383);(1093 351),(1055 351),(1055 416),(1093 416)</text>
	
		<text id="_x32_FES1_x5F_Zone" transform="matrix(1 0 0 1 1992.5127 1241.8208)" display="inline" fill="#FF0000" font-family="'AdobeMyungjoStd-Medium-KSCpc-EUC-H'" font-size="12">2FES1;(641 241);(572 226),(572 258),(712 258),(712 226)</text>
	
		<text id="_x32_FEV1_x5F_Zone" transform="matrix(1 0 0 1 1617.2544 1415.5531)" display="inline" fill="#FF0000" font-family="'AdobeMyungjoStd-Medium-KSCpc-EUC-H'" font-size="12">2FEV1;(239 388);(256 426),(224 426),(224 351),(256 351)</text>
	
		<text id="_x32_FEV3_x5F_Zone" transform="matrix(1 0 0 1 2450.3804 1482.0911)" display="inline" fill="#FF0000" font-family="'AdobeMyungjoStd-Medium-KSCpc-EUC-H'" font-size="12">2FEV3;(1074 456);(1093 426),(1055 426),(1055 487),(1093 487)</text>
	
		<text id="_x32_FEV2_x5F_Zone" transform="matrix(1 0 0 1 2383.0681 1454.1727)" display="inline" fill="#FF0000" font-family="'AdobeMyungjoStd-Medium-KSCpc-EUC-H'" font-size="12">2FEV2;(1004 426);(1018 365),(991 365),(991 487),(1018 487)z</text>
	
		<text id="_x32_FWC1_x5F_Zone" transform="matrix(1 0 0 1 1605.3094 1224.4939)" display="inline" fill="#FF0000" font-family="'AdobeMyungjoStd-Medium-KSCpc-EUC-H'" font-size="12">2FWC1;(253 223);(269 175),(269 207),(186 207),(186 263),(214 263),(214 272),(228 272),(228 235),(321 235),(321 175)</text>
	
		<text id="_x32_FWC2_x5F_Zone" transform="matrix(1 0 0 1 2376.7329 1224.2313)" display="inline" fill="#FF0000" font-family="'AdobeMyungjoStd-Medium-KSCpc-EUC-H'" font-size="12">2FWC2;(1025 223);(1009 206),(1009 175),(957 175),(957 235),(1046 235),(1046 272),(1093 272),(1093 206)</text>
</g>
<g id="Zone-Tenant" display="none">
	
		<text id="D-1_x5F_Zone" transform="matrix(1 0 0 1 2454.4465 1347.8839)" display="inline" fill="#FF0000" font-family="'AdobeMyungjoStd-Medium-KSCpc-EUC-H'" font-size="12">D-1;(1077 321);(1093 351),(1061 351),(1061 291),(1093 291)</text>
	
		<text id="_x32_03-1_x5F_Zone" transform="matrix(1 0 0 1 2280.5903 1260.3059)" display="inline" fill="#FF0000" font-family="'AdobeMyungjoStd-Medium-KSCpc-EUC-H'" font-size="12">203-1;(915 246);(957 266),(874 266),(874 226),(957 226)</text>
	
		<text id="_x32_03_x5F_Zone" transform="matrix(1 0 0 1 1605.3094 1303.5586)" display="inline" fill="#FF0000" font-family="'AdobeMyungjoStd-Medium-KSCpc-EUC-H'" font-size="12">203;(253 302);(321 253),(228 253),(228 272),(214 272),(214 263),(186 263),(186 351),(256 351),(256 333),(321 333)</text>
</g>
</svg>
